<mxfile host="app.diagrams.net" modified="2022-03-02T03:38:18.005Z" agent="5.0 (Windows NT 10.0; WOW64) AppleWebKit/537.36 (KHTML, like Gecko) Chrome/86.0.4240.198 Safari/537.36" etag="9y0v5eZa9P5NCZ0D1dnq" version="16.6.4" type="github">
  <diagram id="PYlMHFy3A0H7N5cJ7msh" name="Page-1">
    <mxGraphModel dx="868" dy="462" grid="1" gridSize="10" guides="1" tooltips="1" connect="1" arrows="1" fold="1" page="1" pageScale="1" pageWidth="827" pageHeight="1169" math="0" shadow="0">
      <root>
        <mxCell id="0" />
        <mxCell id="1" parent="0" />
        <mxCell id="i-8EgYSI2Mq5ClRvYBfd-3" value="" style="edgeStyle=orthogonalEdgeStyle;rounded=0;orthogonalLoop=1;jettySize=auto;html=1;" edge="1" parent="1" source="i-8EgYSI2Mq5ClRvYBfd-1" target="i-8EgYSI2Mq5ClRvYBfd-2">
          <mxGeometry relative="1" as="geometry" />
        </mxCell>
        <mxCell id="i-8EgYSI2Mq5ClRvYBfd-1" value="基于时空智能的煤矿瓦斯安全管理" style="rounded=0;whiteSpace=wrap;html=1;fillColor=#dae8fc;strokeColor=#6c8ebf;" vertex="1" parent="1">
          <mxGeometry x="290" y="130" width="200" height="50" as="geometry" />
        </mxCell>
        <mxCell id="i-8EgYSI2Mq5ClRvYBfd-17" value="" style="edgeStyle=orthogonalEdgeStyle;rounded=0;orthogonalLoop=1;jettySize=auto;html=1;" edge="1" parent="1" source="i-8EgYSI2Mq5ClRvYBfd-2" target="i-8EgYSI2Mq5ClRvYBfd-16">
          <mxGeometry relative="1" as="geometry" />
        </mxCell>
        <mxCell id="i-8EgYSI2Mq5ClRvYBfd-20" style="edgeStyle=orthogonalEdgeStyle;rounded=0;orthogonalLoop=1;jettySize=auto;html=1;exitX=0.5;exitY=1;exitDx=0;exitDy=0;entryX=0.5;entryY=0;entryDx=0;entryDy=0;" edge="1" parent="1" source="i-8EgYSI2Mq5ClRvYBfd-2" target="i-8EgYSI2Mq5ClRvYBfd-5">
          <mxGeometry relative="1" as="geometry" />
        </mxCell>
        <mxCell id="i-8EgYSI2Mq5ClRvYBfd-2" value="时空智能煤矿瓦斯安全管理-&lt;b&gt;理论&lt;/b&gt;" style="whiteSpace=wrap;html=1;rounded=0;" vertex="1" parent="1">
          <mxGeometry x="280" y="210" width="220" height="40" as="geometry" />
        </mxCell>
        <mxCell id="i-8EgYSI2Mq5ClRvYBfd-9" style="edgeStyle=orthogonalEdgeStyle;rounded=0;orthogonalLoop=1;jettySize=auto;html=1;exitX=0.25;exitY=1;exitDx=0;exitDy=0;entryX=0.5;entryY=0;entryDx=0;entryDy=0;" edge="1" parent="1" source="i-8EgYSI2Mq5ClRvYBfd-5" target="i-8EgYSI2Mq5ClRvYBfd-11">
          <mxGeometry relative="1" as="geometry">
            <mxPoint x="400" y="370" as="targetPoint" />
          </mxGeometry>
        </mxCell>
        <mxCell id="i-8EgYSI2Mq5ClRvYBfd-18" style="edgeStyle=orthogonalEdgeStyle;rounded=0;orthogonalLoop=1;jettySize=auto;html=1;exitX=0.75;exitY=1;exitDx=0;exitDy=0;entryX=0.5;entryY=0;entryDx=0;entryDy=0;" edge="1" parent="1" source="i-8EgYSI2Mq5ClRvYBfd-5" target="i-8EgYSI2Mq5ClRvYBfd-7">
          <mxGeometry relative="1" as="geometry" />
        </mxCell>
        <mxCell id="i-8EgYSI2Mq5ClRvYBfd-19" style="edgeStyle=orthogonalEdgeStyle;rounded=0;orthogonalLoop=1;jettySize=auto;html=1;exitX=0.5;exitY=1;exitDx=0;exitDy=0;entryX=0.5;entryY=0;entryDx=0;entryDy=0;" edge="1" parent="1" source="i-8EgYSI2Mq5ClRvYBfd-5" target="i-8EgYSI2Mq5ClRvYBfd-10">
          <mxGeometry relative="1" as="geometry" />
        </mxCell>
        <mxCell id="i-8EgYSI2Mq5ClRvYBfd-5" value="时态GIS煤矿瓦斯管理-&lt;b&gt;时空数据模型&lt;/b&gt;" style="whiteSpace=wrap;html=1;rounded=0;" vertex="1" parent="1">
          <mxGeometry x="290" y="280" width="200" height="40" as="geometry" />
        </mxCell>
        <mxCell id="i-8EgYSI2Mq5ClRvYBfd-15" style="edgeStyle=orthogonalEdgeStyle;rounded=0;orthogonalLoop=1;jettySize=auto;html=1;exitX=0.5;exitY=1;exitDx=0;exitDy=0;entryX=0.5;entryY=0;entryDx=0;entryDy=0;" edge="1" parent="1" source="i-8EgYSI2Mq5ClRvYBfd-7" target="i-8EgYSI2Mq5ClRvYBfd-12">
          <mxGeometry relative="1" as="geometry" />
        </mxCell>
        <mxCell id="i-8EgYSI2Mq5ClRvYBfd-7" value="基于时空模型的煤矿瓦斯灾害&lt;b&gt;风险评估&lt;/b&gt;" style="whiteSpace=wrap;html=1;rounded=0;" vertex="1" parent="1">
          <mxGeometry x="480" y="360" width="160" height="60" as="geometry" />
        </mxCell>
        <mxCell id="i-8EgYSI2Mq5ClRvYBfd-14" style="edgeStyle=orthogonalEdgeStyle;rounded=0;orthogonalLoop=1;jettySize=auto;html=1;exitX=0.5;exitY=1;exitDx=0;exitDy=0;" edge="1" parent="1" source="i-8EgYSI2Mq5ClRvYBfd-10">
          <mxGeometry relative="1" as="geometry">
            <mxPoint x="390" y="470" as="targetPoint" />
          </mxGeometry>
        </mxCell>
        <mxCell id="i-8EgYSI2Mq5ClRvYBfd-10" value="基于时空模型的煤矿瓦斯灾害&lt;b&gt;风险预测&lt;/b&gt;" style="rounded=0;whiteSpace=wrap;html=1;" vertex="1" parent="1">
          <mxGeometry x="310" y="360" width="160" height="60" as="geometry" />
        </mxCell>
        <mxCell id="i-8EgYSI2Mq5ClRvYBfd-13" style="edgeStyle=orthogonalEdgeStyle;rounded=0;orthogonalLoop=1;jettySize=auto;html=1;exitX=0.5;exitY=1;exitDx=0;exitDy=0;entryX=0.5;entryY=0;entryDx=0;entryDy=0;" edge="1" parent="1" source="i-8EgYSI2Mq5ClRvYBfd-11" target="i-8EgYSI2Mq5ClRvYBfd-12">
          <mxGeometry relative="1" as="geometry" />
        </mxCell>
        <mxCell id="i-8EgYSI2Mq5ClRvYBfd-11" value="基于时空模型的瓦斯灾害应急&lt;b&gt;决策支持&lt;/b&gt;" style="rounded=0;whiteSpace=wrap;html=1;" vertex="1" parent="1">
          <mxGeometry x="140" y="360" width="160" height="60" as="geometry" />
        </mxCell>
        <mxCell id="i-8EgYSI2Mq5ClRvYBfd-12" value="基于时空智能的煤矿瓦斯&lt;b&gt;管理平台&lt;/b&gt;" style="rounded=0;whiteSpace=wrap;html=1;" vertex="1" parent="1">
          <mxGeometry x="320" y="460" width="140" height="60" as="geometry" />
        </mxCell>
        <mxCell id="i-8EgYSI2Mq5ClRvYBfd-16" value="风险评估&lt;br&gt;风险预测&lt;br&gt;应急决策" style="whiteSpace=wrap;html=1;rounded=0;fillColor=#ffe6cc;strokeColor=#d79b00;" vertex="1" parent="1">
          <mxGeometry x="540" y="200" width="120" height="60" as="geometry" />
        </mxCell>
      </root>
    </mxGraphModel>
  </diagram>
</mxfile>
